<svg xmlns="http://www.w3.org/2000/svg" xmlns:xlink="http://www.w3.org/1999/xlink" width="125" height="24" viewBox="0 0 125 24"><defs><path id="a" d="M0 0h125v24H0z"/></defs><g fill="none" fill-rule="evenodd"><g><mask id="b" fill="#fff"><use xlink:href="#a"/></mask><path fill="#FFFFFE" d="m123.096 4.845-3.76-2.153L115.52.508c-2.527-1.448-5.678.373-5.678 3.282v.49c0 .269.143.517.376.65l1.77 1.013a.737.737 0 0 0 1.103-.637V4.145a.75.75 0 0 1 1.122-.649l6.96 3.986a.747.747 0 0 1 0 1.298l-6.96 3.986a.75.75 0 0 1-1.122-.648v-.577c0-2.91-3.151-4.73-5.68-3.283l-7.573 4.338c-2.54 1.454-2.54 5.11 0 6.565l7.574 4.338c2.528 1.448 5.679-.374 5.679-3.283v-.491a.749.749 0 0 0-.377-.65l-1.769-1.013a.736.736 0 0 0-1.103.638v1.162a.75.75 0 0 1-1.123.648l-6.96-3.986a.747.747 0 0 1 0-1.297l6.96-3.987a.75.75 0 0 1 1.123.649v.577c0 2.909 3.15 4.73 5.678 3.283l3.815-2.185 3.76-2.153c2.54-1.455 2.54-5.111 0-6.566M98.401 5.564l-8.82 18.171h-3.66l3.295-6.79-5.181-11.381h3.754l3.329 7.621 3.637-7.621h3.646M10.309 18.467V16.79c-.957 1.161-2.379 1.884-4.085 1.884-3.542 0-6.23-2.839-6.23-6.658 0-3.794 2.792-6.684 6.308-6.684 1.654 0 3.05.723 4.007 1.858V5.564h3.18v12.903h-3.18Zm-.026-6.451c0-2.168-1.577-3.69-3.516-3.69s-3.516 1.548-3.516 3.69c0 2.116 1.577 3.69 3.516 3.69 1.94 0 3.516-1.522 3.516-3.69Z" mask="url(#b)"/></g><path fill="#FFFFFE" d="M29.336 15.165c-1.144 0-1.462-.409-1.462-1.481v-5.67h2.1V5.23h-2.1V2.114h-3.35V5.23H20.21V3.959c0-1.073.425-1.482 1.595-1.482h.735V0h-1.612c-2.765 0-4.067.869-4.067 3.525V5.23H15v2.784h1.86V18h3.35V8.014h4.314v6.257c0 2.605 1.037 3.729 3.748 3.729H30v-2.835h-.664M34.294 12.343c.226 1.86 1.559 2.916 3.244 2.916 1.332 0 2.363-.629 2.967-1.634h3.243C42.994 16.29 40.605 18 37.462 18 33.665 18 31 15.335 31 11.538 31 7.74 33.816 5 37.538 5 41.284 5 44 7.766 44 11.538c0 .276-.025.553-.076.805h-9.63Zm6.311-1.962c-.226-1.634-1.559-2.615-3.118-2.615s-2.841.956-3.168 2.615h6.286ZM55 23V5.227h3.063v1.64C58.985 5.708 60.354 5 61.998 5 65.36 5 68 7.802 68 11.512c0 3.71-2.69 6.538-6.077 6.538-1.569 0-2.864-.631-3.76-1.691V23H55Zm9.862-11.462c0-2.045-1.52-3.61-3.387-3.61-1.868 0-3.387 1.515-3.387 3.61 0 2.07 1.52 3.61 3.387 3.61 1.868 0 3.387-1.566 3.387-3.61ZM78.937 17.799v-1.635C78.015 17.296 76.646 18 75.002 18 71.59 18 69 15.234 69 11.512 69 7.816 71.69 5 75.076 5c1.594 0 2.94.704 3.86 1.81V5.227H82V17.8h-3.063Zm-.025-6.287c0-2.111-1.52-3.595-3.387-3.595-1.868 0-3.387 1.509-3.387 3.595 0 2.062 1.52 3.596 3.387 3.596 1.868 0 3.387-1.483 3.387-3.596ZM49.02 6.481S49.79 5 51.674 5C52.48 5 53 5.288 53 5.288v3.258s-1.137-.73-2.18-.583c-1.044.147-1.704 1.143-1.7 2.477V18H46V5.23h3.02V6.48"/></g></svg>