<svg xmlns="http://www.w3.org/2000/svg" width="77" height="16" fill="none"><g fill="#6EC4B8"><path d="M75.118 3.75 72.85 2.454l-2.267-1.36a2.302 2.302 0 0 0-2.284.01 2.27 2.27 0 0 0-1.138 1.966v.276c0 .162.08.313.214.404l1.07.595a.43.43 0 0 0 .598-.17.401.401 0 0 0 0-.212v-.68a.444.444 0 0 1 .428-.468h.257l2.139 1.211 2.138 1.19c.217.137.283.42.15.638l-.15.149-2.138 1.19-2.14 1.21a.452.452 0 0 1-.62-.148.505.505 0 0 1 0-.255v-.34c0-.81-.433-1.56-1.138-1.967a2.302 2.302 0 0 0-2.284-.01l-2.31 1.318-2.267 1.297a2.287 2.287 0 0 0-.856 3.102c.197.36.494.654.856.85l2.267 1.296 2.31 1.296a2.302 2.302 0 0 0 2.284-.009 2.271 2.271 0 0 0 1.138-1.967v-.276a.488.488 0 0 0-.214-.404l-1.069-.616a.43.43 0 0 0-.599.17.487.487 0 0 0 0 .234v.68a.444.444 0 0 1-.428.467.582.582 0 0 1-.256 0L64.4 11.91l-2.138-1.19a.466.466 0 0 1-.235-.595l.15-.149 2.138-1.19 2.14-1.211a.452.452 0 0 1 .62.149.505.505 0 0 1 0 .255v.34c0 .81.433 1.56 1.138 1.967.705.407 1.575.41 2.284.009l2.31-1.317 2.267-1.297a2.24 2.24 0 0 0 .727-3.124 2.129 2.129 0 0 0-.684-.807zM60.188 4.133l-5.326 10.922h-2.138l1.989-4.08-3.123-6.842h2.267l2.01 4.568 2.14-4.568z"/><path fill-rule="evenodd" d="M6.952 10.869v1.02h1.86V4.133H6.91v.977a3.153 3.153 0 0 0-2.438-1.126c-1.033.038-2.008.484-2.71 1.237S.687 6.974.728 8v.128a3.79 3.79 0 0 0 1.06 2.714 3.84 3.84 0 0 0 2.683 1.174 3.195 3.195 0 0 0 2.48-1.147zM4.745 5.982A2.133 2.133 0 0 1 6.952 8v.106a2.132 2.132 0 0 1-2.14 2.125A2.132 2.132 0 0 1 2.678 8.14a2.131 2.131 0 0 1 2.068-2.158z" clip-rule="evenodd"/><path d="M18.224 10.125c-.684 0-.856-.255-.856-.892V5.875h1.22V4.196h-1.22V2.241h-1.967v1.892h-2.567v-.787c0-.637.257-.892.941-.892h.428V.945h-.92c-1.625 0-2.395.531-2.395 2.125v1.041H9.797v1.764h1.09v6.077h1.947V5.876h2.567v3.804c0 1.594.599 2.274 2.139 2.274h1.07v-1.828z"/><g fill-rule="evenodd" clip-rule="evenodd"><path d="M23.4 10.316a1.942 1.942 0 0 1-2.011-1.806l5.946-.021a1.877 1.877 0 0 0 0-.489c0-2.218-1.81-4.016-4.043-4.016S19.25 5.782 19.25 8v.468c.148 2.106 1.986 3.694 4.107 3.548a3.827 3.827 0 0 0 3.892-2.698h-2.01a2.143 2.143 0 0 1-1.84.998zm-.065-4.611a1.858 1.858 0 0 1 1.947 1.594h-3.914a1.9 1.9 0 0 1 1.967-1.594zM33.73 4.133v10.922h2.032v-4.08a3.09 3.09 0 0 0 2.375 1.041 3.903 3.903 0 0 0 2.71-1.237A3.853 3.853 0 0 0 41.88 8v-.149a3.79 3.79 0 0 0-1.076-2.708 3.84 3.84 0 0 0-2.689-1.16 3.195 3.195 0 0 0-2.48 1.148v-.998zm4.017 1.795A2.133 2.133 0 0 1 39.912 8v.106a2.133 2.133 0 0 1-2.165 2.072 2.132 2.132 0 0 1-2.112-2.125c0-1.163.941-2.11 2.112-2.125zM48.81 10.869v1.02h1.86V4.132h-1.925v.978a3.11 3.11 0 0 0-2.417-1.126 3.904 3.904 0 0 0-2.71 1.237A3.853 3.853 0 0 0 42.585 8v.149c-.017 1.009.37 1.983 1.076 2.708s1.673 1.143 2.688 1.16a3.13 3.13 0 0 0 2.46-1.148zm-2.174-4.885A2.133 2.133 0 0 1 48.81 8v.106a2.132 2.132 0 0 1-2.139 2.125h-.107a2.13 2.13 0 0 1-2.029-2.158 2.132 2.132 0 0 1 2.102-2.089z"/></g><path d="M30.265 4.897a1.95 1.95 0 0 1 1.69-.913c.287-.008.572.05.834.17V6.15a2.472 2.472 0 0 0-1.39-.361 1.36 1.36 0 0 0-1.07 1.509v4.59h-1.99V4.133h1.926z"/></g></svg>