<?xml version="1.0" encoding="UTF-8"?>
<svg width="40px" height="40px" viewBox="0 0 40 40" version="1.1" xmlns="http://www.w3.org/2000/svg" xmlns:xlink="http://www.w3.org/1999/xlink">
    <title>close-white</title>
    <g id="close-white" stroke="none" stroke-width="1" fill="none" fill-rule="evenodd">
        <path d="M20.00064,0 C25.3032,0.00576 30.386016,2.11536 34.13616,5.86512 C37.886304,9.61488 39.9956544,14.69808 40.00128,20.00064 C40.00128,25.30512 37.893792,30.39192 34.14192,34.14192 C30.39168,37.893792 25.30512,40.00128 20.00064,40.00128 C14.69616,40.00128 9.60936,37.893792 5.85936,34.14192 C2.107488,30.39168 0,25.30512 0,20.00064 C0,14.69616 2.107488,9.60936 5.85936,5.85936 C9.6096,2.107488 14.69616,0 20.00064,0 Z M20.00064,4.001568 C15.75744,4.001568 11.68704,5.687184 8.68704,8.687184 C5.68704,11.687184 4.001424,15.757584 4.001424,20.000784 C4.001424,24.243984 5.68704,28.314384 8.68704,31.314384 C11.68704,34.314384 15.757536,36 20.00064,36 C24.241584,35.996592 28.308624,34.309104 31.308624,31.309104 C34.308624,28.309104 35.9961072,24.242016 35.999856,20.000784 C35.999856,15.757584 34.31424,11.687184 31.31424,8.687184 C28.31424,5.687184 24.24384,4.001568 20.00064,4.001568 Z M25.65936,11.51616 L28.486848,14.343648 L22.828128,20.000448 L28.486848,25.657248 L25.65936,28.484736 L20.00064,22.827936 L14.34192,28.484736 L11.514432,25.657248 L17.173152,20.000448 L11.514432,14.343648 L14.34192,11.51616 L20.00064,17.17296 L25.65936,11.51616 Z" id="Combined-Shape" fill="#FFFFFF"></path>
    </g>
</svg>