<svg xmlns="http://www.w3.org/2000/svg" width="119" height="28" viewBox="0 0 119 28"><g fill="#FFF" fill-rule="nonzero"><path d="m19.453 2.42-2.984 3.125c-.216.217-.504 0-.504 0l-3.83-4.064a3.062 3.062 0 0 0-4.35-.108l-.108.108c-1.223 1.282-1.223 3.396 0 4.678l6.346 6.628c1.169 1.246 3.11 1.283 4.351.109l.108-.109 5.304-5.544.935-.994a1.601 1.601 0 0 1 2.319 0c.63.668.63 1.698-.018 2.366l-.953 1.012-9.636 10.096c-.288.307-.576 0-.576 0L5.376 8.742a3.062 3.062 0 0 0-4.351-.109l-.108.109c-1.223 1.282-1.223 3.395 0 4.677l13.07 13.673-.071-.055c1.168 1.247 3.11 1.283 4.35.109l.108-.109 12.172-12.733.126-.126c3.092-3.233 3.11-8.47.018-11.722-3.093-3.25-8.145-3.287-11.237-.036M49.923 21.917h-6.987V10.542a.485.485 0 0 0-.468-.472.473.473 0 0 0-.468.472v11.777c0 .244.216.471.468.471h7.455a.435.435 0 0 0 .432-.437c-.018-.244-.198-.436-.432-.436m5.907-3.53 3.313-7.321 3.295 7.321H55.83Zm3.98-7.933c-.127-.28-.307-.454-.63-.454h-.037c-.324 0-.504.175-.63.454l-5.348 11.707a.803.803 0 0 0-.072.297c0 .21.198.402.432.402.216 0 .36-.122.45-.35l1.459-3.267h7.383l1.458 3.25c.09.192.252.367.468.367a.44.44 0 0 0 .45-.437.602.602 0 0 0-.071-.297c.018 0-5.313-11.672-5.313-11.672Zm16.728-.384c-.198 0-.306.122-.414.28l-4.556 6.587-4.538-6.588c-.108-.157-.234-.28-.432-.28-.27 0-.468.21-.486.473 0 .087.036.192.09.297l4.88 6.954v4.613c0 .245.216.472.468.472s.468-.21.468-.472v-4.648l4.844-6.884c.073-.105.145-.227.145-.367a.467.467 0 0 0-.469-.437m11.705 8.894c0 .943-.738 1.38-1.945 1.38h-3.277v-2.778h3.187c1.405 0 2.035.524 2.035 1.38v.018Zm-5.222-6.395h2.72c1.17 0 1.8.471 1.8 1.293v.035c0 .943-.774 1.345-1.98 1.345h-2.54v-2.673Zm5.618 3.599c.9-.507 1.64-1.293 1.64-2.726v-.035c0-.873-.29-1.572-.865-2.149-.72-.716-1.837-1.118-3.278-1.118h-4.43c-.774 0-1.368.611-1.368 1.398v9.872c0 .769.612 1.398 1.369 1.398h4.573c2.828 0 4.682-1.153 4.682-3.477v-.035c.018-1.713-.864-2.569-2.323-3.128Zm14.839-6.133c-.775 0-1.369.612-1.369 1.398v5.958c0 2.01-1.026 3.04-2.701 3.04s-2.701-1.065-2.701-3.127v-5.871c0-.769-.613-1.398-1.369-1.398-.774 0-1.368.612-1.368 1.398v5.94c0 3.722 2.052 5.627 5.42 5.627 3.367 0 5.492-1.887 5.492-5.714v-5.853c-.018-.786-.63-1.416-1.404-1.398M117.649 10c-.576 0-.99.332-1.314.839l-3.097 4.455-3.044-4.42c-.342-.507-.738-.857-1.35-.857-.775 0-1.369.595-1.369 1.346 0 .402.144.716.342.996l4.034 5.539v3.6c0 .768.612 1.397 1.369 1.397.774 0 1.386-.611 1.386-1.398v-3.652l4.034-5.504c.18-.244.36-.594.36-.978-.018-.751-.522-1.363-1.35-1.363"/></g></svg>